HIERARCHY
ROOT hip
{
  OFFSET -80.3603 71.2407 -269.828
  CHANNELS 6 Xposition Yposition Zposition Zrotation Xrotation Yrotation
  JOINT abdomen
  {
    OFFSET 0 20.6881 -0.73152
    CHANNELS 3 Zrotation Xrotation Yrotation
    JOINT chest
    {
      OFFSET 0 11.7043 -0.48768
      CHANNELS 3 Zrotation Xrotation Yrotation
      JOINT neck
      {
        OFFSET 0 22.1894 -2.19456
        CHANNELS 3 Zrotation Xrotation Yrotation
        JOINT head
        {
          OFFSET -0.24384 7.07133 1.2192
          CHANNELS 3 Zrotation Xrotation Yrotation
          JOINT leftEye
          {
            OFFSET 4.14528 8.04674 8.04672
            CHANNELS 3 Zrotation Xrotation Yrotation
            End Site
            {
              OFFSET 1 0 0
            }
          }
          JOINT rightEye
          {
            OFFSET -3.6576 8.04674 8.04672
            CHANNELS 3 Zrotation Xrotation Yrotation
            End Site
            {
              OFFSET 1 0 0
            }
          }
        }
      }
      JOINT rCollar
      {
        OFFSET -2.68224 19.2634 -4.8768
        CHANNELS 3 Zrotation Xrotation Yrotation
        JOINT rShldr
        {
          OFFSET -8.77824 -1.95073 1.46304
          CHANNELS 3 Zrotation Xrotation Yrotation
          JOINT rForeArm
          {
            OFFSET -28.1742 -1.7115 0.48768
            CHANNELS 3 Zrotation Xrotation Yrotation
            JOINT rHand
            {
              OFFSET -22.5879 0.773209 7.07136
              CHANNELS 3 Zrotation Xrotation Yrotation
              JOINT rThumb1
              {
                OFFSET -1.2192 -0.487915 3.41376
                CHANNELS 3 Zrotation Xrotation Yrotation
                JOINT rThumb2
                {
                  OFFSET -3.37035 -0.52449 3.41376
                  CHANNELS 3 Zrotation Xrotation Yrotation
                  End Site
                  {
                    OFFSET -1.78271 -1.18214 1.43049
                  }
                }
              }
              JOINT rIndex1
              {
                OFFSET -7.75947 0.938293 5.60832
                CHANNELS 3 Zrotation Xrotation Yrotation
                JOINT rIndex2
                {
                  OFFSET -2.54057 -0.884171 1.56538
                  CHANNELS 3 Zrotation Xrotation Yrotation
                  End Site
                  {
                    OFFSET -1.62519 -0.234802 1.16502
                  }
                }
              }
              JOINT rMid1
              {
                OFFSET -8.24714 1.18213 3.41376
                CHANNELS 3 Zrotation Xrotation Yrotation
                JOINT rMid2
                {
                  OFFSET -3.10165 -0.590103 1.0647
                  CHANNELS 3 Zrotation Xrotation Yrotation
                  End Site
                  {
                    OFFSET -2.48547 -0.328903 0.83742
                  }
                }
              }
              JOINT rRing1
              {
                OFFSET -8.82822 0.546677 1.51678
                CHANNELS 3 Zrotation Xrotation Yrotation
                JOINT rRing2
                {
                  OFFSET -2.60934 -0.819778 -0.0198488
                  CHANNELS 3 Zrotation Xrotation Yrotation
                  End Site
                  {
                    OFFSET -2.33842 -0.294052 0.168128
                  }
                }
              }
              JOINT rPinky1
              {
                OFFSET -8.27202 -0.0477905 -0.4584
                CHANNELS 3 Zrotation Xrotation Yrotation
                JOINT rPinky2
                {
                  OFFSET -1.82734 -0.647385 -0.700984
                  CHANNELS 3 Zrotation Xrotation Yrotation
                  End Site
                  {
                    OFFSET -1.69225 -0.51767 -0.607171
                  }
                }
              }
            }
          }
        }
      }
      JOINT lCollar
      {
        OFFSET 2.68224 19.2634 -4.8768
        CHANNELS 3 Zrotation Xrotation Yrotation
        JOINT lShldr
        {
          OFFSET 8.77824 -1.95073 1.46304
          CHANNELS 3 Zrotation Xrotation Yrotation
          JOINT lForeArm
          {
            OFFSET 28.1742 -1.7115 0.48768
            CHANNELS 3 Zrotation Xrotation Yrotation
            JOINT lHand
            {
              OFFSET 22.5879 0.773209 7.07136
              CHANNELS 3 Zrotation Xrotation Yrotation
              JOINT lThumb1
              {
                OFFSET 1.2192 -0.487915 3.41376
                CHANNELS 3 Zrotation Xrotation Yrotation
                JOINT lThumb2
                {
                  OFFSET 3.37035 -0.52449 3.41376
                  CHANNELS 3 Zrotation Xrotation Yrotation
                  End Site
                  {
                    OFFSET 1.78271 -1.18214 1.43049
                  }
                }
              }
              JOINT lIndex1
              {
                OFFSET 7.75947 0.938293 5.60832
                CHANNELS 3 Zrotation Xrotation Yrotation
                JOINT lIndex2
                {
                  OFFSET 2.54057 -0.884171 1.56538
                  CHANNELS 3 Zrotation Xrotation Yrotation
                  End Site
                  {
                    OFFSET 1.62519 -0.234802 1.16502
                  }
                }
              }
              JOINT lMid1
              {
                OFFSET 8.24714 1.18213 3.41376
                CHANNELS 3 Zrotation Xrotation Yrotation
                JOINT lMid2
                {
                  OFFSET 3.10165 -0.590103 1.0647
                  CHANNELS 3 Zrotation Xrotation Yrotation
                  End Site
                  {
                    OFFSET 2.48547 -0.328903 0.83742
                  }
                }
              }
              JOINT lRing1
              {
                OFFSET 8.82822 0.546677 1.51678
                CHANNELS 3 Zrotation Xrotation Yrotation
                JOINT lRing2
                {
                  OFFSET 2.60934 -0.819778 -0.0198488
                  CHANNELS 3 Zrotation Xrotation Yrotation
                  End Site
                  {
                    OFFSET 2.33842 -0.294052 0.168128
                  }
                }
              }
              JOINT lPinky1
              {
                OFFSET 8.27202 -0.0477905 -0.4584
                CHANNELS 3 Zrotation Xrotation Yrotation
                JOINT lPinky2
                {
                  OFFSET 1.82734 -0.647385 -0.700984
                  CHANNELS 3 Zrotation Xrotation Yrotation
                  End Site
                  {
                    OFFSET 1.69225 -0.51767 -0.607171
                  }
                }
              }
            }
          }
        }
      }
    }
  }
  JOINT rButtock
  {
    OFFSET -8.77824 4.35084 1.2192
    CHANNELS 3 Zrotation Xrotation Yrotation
    JOINT rThigh
    {
      OFFSET 0 -1.70687 -2.19456
      CHANNELS 3 Zrotation Xrotation Yrotation
      JOINT rShin
      {
        OFFSET 0 -36.8199 0.73152
        CHANNELS 3 Zrotation Xrotation Yrotation
        JOINT rFoot
        {
          OFFSET 0.73152 -45.1104 -5.12064
          CHANNELS 3 Zrotation Xrotation Yrotation
          End Site
          {
            OFFSET -1.1221 -3.69964 12.103
          }
        }
      }
    }
  }
  JOINT lButtock
  {
    OFFSET 8.77824 4.35084 1.2192
    CHANNELS 3 Zrotation Xrotation Yrotation
    JOINT lThigh
    {
      OFFSET 0 -1.70687 -2.19456
      CHANNELS 3 Zrotation Xrotation Yrotation
      JOINT lShin
      {
        OFFSET 0 -36.8199 0.73152
        CHANNELS 3 Zrotation Xrotation Yrotation
        JOINT lFoot
        {
          OFFSET -0.73152 -45.1104 -5.12064
          CHANNELS 3 Zrotation Xrotation Yrotation
          End Site
          {
            OFFSET 1.1221 -3.69964 12.103
          }
        }
      }
    }
  }
}
MOTION
Frames:	4
Frame Time:	0.00833333
95.0261 77.5219 210.003 0.916257 0.00143188 -0.016973 -1.20513 -0.0037912 -0.0330414 -0.332188 -0.00228121 -0.0575416 -8.71652e-015 -1.59028e-015 2.23633e-016 -2.60035e-014 3.18055e-015 6.70898e-016 -0 0 0 -0 0 0 -4.42463e-015 -3.5525e-017 2.48481e-016 -8.91005e-014 -5.96354e-016 3.18055e-015 -1.56384e-012 4.42495e-013 6.67917e-014 -1.78772e-011 -5.9372e-013 4.38917e-013 -4.21736e-011 -3.31215e-013 1.11319e-012 -7.28399e-011 -5.725e-013 1.91072e-012 -4.21674e-011 -3.2879e-013 1.09411e-012 7.73091 5.47488 0.417314 -4.21728e-011 -3.31473e-013 1.11001e-012 2.90554 0.965183 0.102902 -4.21612e-011 -3.31275e-013 1.10524e-012 10.2786 0.731801 0.0259123 -4.21765e-011 -3.3197e-013 1.11319e-012 2.22167 -0.733487 -0.20892 -4.42157e-015 -3.64956e-017 -4.96962e-017 -9.34382e-014 -6.02566e-016 9.93923e-016 -1.56106e-012 -4.8901e-013 6.67917e-014 -1.78755e-011 3.43401e-013 4.35736e-013 -4.2161e-011 -3.19269e-013 1.10047e-012 -7.28057e-011 -5.50236e-013 1.90992e-012 -4.21662e-011 -3.18055e-013 1.11001e-012 -7.73091 5.47488 -0.417314 -4.21604e-011 -3.19646e-013 1.09729e-012 -2.90554 0.965183 -0.102902 -4.21726e-011 -3.18851e-013 1.10524e-012 -10.2786 0.731801 -0.0259123 -4.21567e-011 -3.17658e-013 1.09729e-012 -2.22167 -0.733487 0.20892 -2.03217e-016 0 -3.88251e-019 -0.398567 -1.9209 -0.0104508 -0.00935488 -2.07854 -0.0773141 -0.515334 3.9968 0.140771 2.03217e-016 0 3.88251e-019 -1.4339 -5.89299 0.127753 -0.00094813 5.11647 -0.0408464 0.531194 0.774001 -0.0763849 
97.1169 74.6309 201.882 -5.4237 1.96786 42.0138 4.04265 7.5014 1.96446 -1.46783 -1.3518 0.530392 -0.365976 -0.322591 -0.420451 -0.843749 -3.33795 -0.84191 -0 0 0 -0 0 0 5.89266e-014 -3.13236e-015 -6.09298e-014 19.608 11.0795 0.984252 -18.4743 -16.0847 15.1168 0.000155655 -0.312387 -0.0439021 -5.00475e-010 -5.30023e-010 5.86865e-010 -8.64579e-010 -9.13857e-010 1.01227e-009 -5.00472e-010 -5.30017e-010 5.86847e-010 7.73091 5.47488 0.417314 -5.00475e-010 -5.30022e-010 5.86863e-010 2.90554 0.965183 0.102902 -5.00466e-010 -5.30022e-010 5.86859e-010 10.2786 0.731801 0.0259123 -5.00479e-010 -5.30023e-010 5.86867e-010 2.22167 -0.733487 -0.20892 5.88871e-014 -3.13215e-015 -6.12292e-014 -21.8563 7.49173 7.97612 10.7655 -7.64289 -12.7791 -0.00218028 -1.0376 0.14574 -5.735e-010 5.31696e-010 -2.77667e-010 -9.89741e-010 9.1586e-010 -4.79982e-010 -5.73508e-010 5.31699e-010 -2.77656e-010 -7.73091 5.47488 -0.417314 -5.73499e-010 5.31697e-010 -2.77669e-010 -2.90554 0.965183 -0.102902 -5.73511e-010 5.31697e-010 -2.77663e-010 -10.2786 0.731801 -0.0259123 -5.73495e-010 5.31698e-010 -2.7767e-010 -2.22167 -0.733487 0.20892 -2.03217e-016 0 -3.88251e-019 3.20796 -4.86109 -0.743316 0.0549112 14.0166 0.166178 -0.503708 5.88123 0.568214 2.03217e-016 0 3.88251e-019 4.02395 -26.2581 2.13711 0.246971 17.1778 -0.00185368 0.378387 7.87757 -0.483434 
96.1823 74.4434 200.133 -13.939 0.342445 86.4008 9.05211 15.3328 4.21251 -2.64664 -2.76266 1.16048 -0.768265 -0.672653 -0.873779 -1.82673 -6.85126 -1.75346 -0 0 0 -0 0 0 1.35666e-013 -6.17925e-015 -1.36372e-013 39.8569 22.7967 2.17274 -28.1045 -29.1712 34.7559 -0.000223266 -0.625917 -0.0879699 -9.93934e-010 -1.05722e-009 1.21489e-009 -1.71687e-009 -1.8226e-009 2.09537e-009 -9.93935e-010 -1.05721e-009 1.21488e-009 7.73091 5.47488 0.417314 -9.93935e-010 -1.05722e-009 1.21489e-009 2.90554 0.965183 0.102902 -9.93928e-010 -1.05722e-009 1.21489e-009 10.2786 0.731801 0.0259123 -9.9394e-010 -1.05722e-009 1.2149e-009 2.22167 -0.733487 -0.20892 1.35581e-013 -6.17726e-015 -1.36674e-013 -47.2709 14.9385 16.9465 18.4847 -14.4635 -26.9862 0.00125503 -2.12737 0.298968 -1.19931e-009 1.20597e-009 -6.0394e-010 -2.06966e-009 2.07785e-009 -1.0443e-009 -1.19932e-009 1.20597e-009 -6.03927e-010 -7.73091 5.47488 -0.417314 -1.19931e-009 1.20597e-009 -6.03942e-010 -2.90554 0.965183 -0.102902 -1.19932e-009 1.20597e-009 -6.03937e-010 -10.2786 0.731801 -0.0259123 -1.19931e-009 1.20597e-009 -6.03943e-010 -2.22167 -0.733487 0.20892 -2.03217e-016 0 -3.88251e-019 6.98744 -7.80173 -1.45598 -0.0424013 30.7916 0.479465 -0.524559 7.96798 1.10402 2.03217e-016 0 3.88251e-019 12.1232 -47.6968 5.6877 0.487121 29.8134 0.0497487 0.329803 15.5445 -0.916876 
95.1966 74.1831 198.318 -19.2276 -4.65564 125.722 12.8631 22.3987 6.39314 -3.65587 -4.04921 1.71009 -1.11213 -0.967563 -1.26151 -2.8293 -10.0051 -2.56041 -0 0 0 -0 0 0 1.85629e-013 -9.32604e-015 -1.83286e-013 57.4937 33.1954 3.46345 -28.9914 -33.6726 55.8597 -0.000969371 -0.93716 -0.131722 -1.41708e-009 -1.58941e-009 1.75837e-009 -2.44806e-009 -2.74043e-009 3.03298e-009 -1.41708e-009 -1.58939e-009 1.75835e-009 7.73091 5.47488 0.417314 -1.41708e-009 -1.5894e-009 1.75837e-009 2.90554 0.965183 0.102902 -1.41707e-009 -1.5894e-009 1.75837e-009 10.2786 0.731801 0.0259123 -1.41708e-009 -1.58941e-009 1.75838e-009 2.22167 -0.733487 -0.20892 1.85504e-013 -9.32347e-015 -1.83588e-013 -71.9784 20.6821 25.4692 22.4937 -18.3189 -40.4209 0.00931462 -3.11273 0.437793 -1.63618e-009 1.59573e-009 -8.35202e-010 -2.82361e-009 2.74868e-009 -1.44377e-009 -1.63619e-009 1.59573e-009 -8.35187e-010 -7.73091 5.47488 -0.417314 -1.63618e-009 1.59573e-009 -8.35203e-010 -2.90554 0.965183 -0.102902 -1.63619e-009 1.59573e-009 -8.35199e-010 -10.2786 0.731801 -0.0259123 -1.63617e-009 1.59573e-009 -8.35204e-010 -2.22167 -0.733487 0.20892 -2.03217e-016 0 -3.88251e-019 10.1918 -10.7347 -2.24026 -0.367066 46.2034 0.922166 -0.56597 9.64795 1.43511 2.03217e-016 0 3.88251e-019 24.8632 -66.4219 13.8519 0.681637 41.3005 0.101236 0.396945 22.0797 -1.38549 
